{"title":"Anna Karenina 2012 DVDSCR XviD","uid":8314882,"size":732908247,"categoryP":"video","categoryS":"movies","magnet":"?xt=urn:btih:f0731627ed50ff208c4c855f38a407dfdb94b6d6&amp;dn=Anna+Karenina+2012+DVDSCR+XviD&amp;tr=udp%3A%2F%2Ftracker.openbittorrent.com%3A80&amp;tr=udp%3A%2F%2Fopen.demonii.com%3A1337&amp;tr=udp%3A%2F%2Ftracker.coppersurfer.tk%3A6969&amp;tr=udp%3A%2F%2Fexodus.desync.com%3A6969","seeders":2,"leechers":0,"uploader":"onlyjustabhi","files":2,"time":1364563515,"description":" Anna Karenina  (2012) \n\nSet in late-19th-century Russia high-society, the aristocrat Anna Karenina enters into a life-changing affair with the affluent Count Vronsky. \n &lt;a href=&quot;\nhttp://postimg.org/image/q53c3dmjn/&quot; rel=&quot;nofollow&quot; target=&quot;_NEW&quot;&gt;\nhttp://postimg.org/image/q53c3dmjn/&lt;/a&gt; &lt;a href=&quot;\nhttp://postimg.org/image/6oimgurfn/&quot; rel=&quot;nofollow&quot; target=&quot;_NEW&quot;&gt;\nhttp://postimg.org/image/6oimgurfn/&lt;/a&gt; &lt;a href=&quot;\nhttp://postimg.org/image/llr3hv4o3/&quot; rel=&quot;nofollow&quot; target=&quot;_NEW&quot;&gt;\nhttp://postimg.org/image/llr3hv4o3/&lt;/a&gt;\n\n\nScreens\n &lt;a href=&quot;\nhttp://s5.postimg.org/gw15t9dnr/Anna_Karenina_2012_DVDSCR_Xvi_D_avi.jpg&quot; rel=&quot;nofollow&quot; target=&quot;_NEW&quot;&gt;\nhttp://s5.postimg.org/gw15t9dnr/Anna_Karenina_2012_DVDSCR_Xvi_D_avi.jpg&lt;/a&gt;\n\n\n\n\nGeneral\nComplete name                            : F:Finished TorrentsAnna Karenina 2012 DVDSCR XviDAnna.Karenina.2012.DVDSCR.XviD.avi\nFormat                                   : AVI\nFormat/Info                              : Audio Video Interleave\nFile size                                : 699 MiB\nDuration                                 : 2h 9mn\nOverall bit rate                         : 754 Kbps\nWriting library                          : VirtualDub build 32817/release\n\nVideo\nID                                       : 0\nFormat                                   : MPEG-4 Visual\nFormat profile                           : Advanced Simple@L5\nFormat settings, BVOP                    : 2\nFormat settings, QPel                    : No\nFormat settings, GMC                     : No warppoints\nFormat settings, Matrix                  : Default (H.263)\nMuxing mode                              : Packed bitstream\nCodec ID                                 : XVID\nCodec ID/Hint                            : XviD\nDuration                                 : 2h 9mn\nBit rate                                 : 632 Kbps\nWidth                                    : 640 pixels\nHeight                                   : 272 pixels\nDisplay aspect ratio                     : 2.35:1\nFrame rate                               : 23.976 fps\nColor space                              : YUV\nChroma subsampling                       : 4:2:0\nBit depth                                : 8 bits\nScan type                                : Progressive\nCompression mode                         : Lossy\nBits/(Pixel*Frame)                       : 0.151\nStream size                              : 586 MiB (84%)\nWriting library                          : XviD 64\n\nAudio\nID                                       : 1\nFormat                                   : AC-3\nFormat/Info                              : Audio Coding 3\nMode extension                           : CM (complete main)\nFormat settings, Endianness              : Big\nCodec ID                                 : 2000\nDuration                                 : 2h 9mn\nBit rate mode                            : Constant\nBit rate                                 : 112 Kbps\nChannel(s)                               : 2 channels\nChannel positions                        : Front: L R\nSampling rate                            : 48.0 KHz\nBit depth                                : 16 bits\nCompression mode                         : Lossy\nStream size                              : 104 MiB (15%)\nAlignment                                : Aligned on interleaves\nInterleave, duration                     : 42 ms (1.00 video frame)\nInterleave, preload duration             : 512 ms\n\n","torrent":{"xt":"urn:btih:f0731627ed50ff208c4c855f38a407dfdb94b6d6","amp;dn":"Anna+Karenina+2012+DVDSCR+XviD","amp;tr":["udp%3A%2F%2Ftracker.openbittorrent.com%3A80","udp%3A%2F%2Fopen.demonii.com%3A1337","udp%3A%2F%2Ftracker.coppersurfer.tk%3A6969","udp%3A%2F%2Fexodus.desync.com%3A6969"],"infoHash":"f0731627ed50ff208c4c855f38a407dfdb94b6d6","infoHashBuffer":{"type":"Buffer","data":[240,115,22,39,237,80,255,32,140,76,133,95,56,164,7,223,219,148,182,214]},"announce":[],"urlList":[]}}